<svg width="74" height="74" viewBox="0 0 74 74" fill="none" xmlns="http://www.w3.org/2000/svg">
<path d="M35.4902 26.1719V40.6738C35.4805 42.6855 34.8457 44.3311 33.5859 45.6104C32.3359 46.8896 30.6367 47.6074 28.4883 47.7637L27.7412 47.793C25.4072 47.793 23.5469 47.1631 22.1602 45.9033C20.7734 44.6436 20.0703 42.9102 20.0508 40.7031V26.1719H22.834V40.6152C22.834 42.1582 23.2588 43.3594 24.1084 44.2188C24.958 45.0684 26.1689 45.4932 27.7412 45.4932C29.333 45.4932 30.5488 45.0684 31.3887 44.2188C32.2383 43.3691 32.6631 42.1729 32.6631 40.6299V26.1719H35.4902Z" fill="black"/>
<path d="M55.2119 28.4863H48.3564V47.5H45.5586V28.4863H38.7178V26.1719H55.2119V28.4863Z" fill="#3D4DA5"/>
</svg>
